# xmcd
#
# Track frame offsets:
#	150
#	8964
#	18781
#	28835
#	40325
#	50757
#	58580
#	67996
#	80624
#	93518
#	108459
#	121345
#	130186
#	140283
#	144392
#	161882
#	169863
#
# Disc length: 2410 seconds
# Revision: 0
# Processed by: cddbd v1.5.2PL0 Copyright (c) Steve Scherf et al.
# Submitted via: dBpowerAMP V12.0
#
DISCID=ea096811
DTITLE=Junior Disorder One Man Band - Husbolt
DYEAR=2006
DGENRE=Blues
TTITLE0=Husbolt
TTITLE1=Dry Land
TTITLE2=Hunted Man
TTITLE3=Fist Fight
TTITLE4=Jessy And Dough
TTITLE5=Investigator
TTITLE6=Kick
TTITLE7=Oh My Wolf
TTITLE8=She Gave It To Me
TTITLE9=Clock
TTITLE10=Deepshit
TTITLE11=Beer Blues
TTITLE12=Can't Satisfy My Slide
TTITLE13=3250X
TTITLE14=Come On In
TTITLE15=Last Dance
TTITLE16=Polly Holy
EXTD=
EXTT0=
EXTT1=
EXTT2=
EXTT3=
EXTT4=
EXTT5=
EXTT6=
EXTT7=
EXTT8=
EXTT9=
EXTT10=
EXTT11=
EXTT12=
EXTT13=
EXTT14=
EXTT15=
EXTT16=
PLAYORDER=
